<svg width="108" height="24" viewBox="0 0 108 24" fill="none" xmlns="http://www.w3.org/2000/svg">
<path d="M54 22C59.5228 22 64 17.5228 64 12C64 6.47715 59.5228 2 54 2C48.4772 2 44 6.47715 44 12C44 17.5228 48.4772 22 54 22Z" stroke="white" stroke-width="2" stroke-linecap="round" stroke-linejoin="round"/>
<path d="M44 12H64" stroke="white" stroke-width="2" stroke-linecap="round" stroke-linejoin="round"/>
<path d="M54 2C56.5013 4.73835 57.9228 8.29203 58 12C57.9228 15.708 56.5013 19.2616 54 22C51.4987 19.2616 50.0772 15.708 50 12C50.0772 8.29203 51.4987 4.73835 54 2V2Z" stroke="white" stroke-width="2" stroke-linecap="round" stroke-linejoin="round"/>
<line x1="73" y1="12" x2="107" y2="12" stroke="url(#paint0_linear_17_157)" stroke-width="2" stroke-linecap="round" stroke-linejoin="round"/>
<line x1="1" y1="12" x2="35" y2="12" stroke="url(#paint1_linear_17_157)" stroke-width="2" stroke-linecap="round" stroke-linejoin="round"/>
<defs>
<linearGradient id="paint0_linear_17_157" x1="72" y1="13" x2="108" y2="13" gradientUnits="userSpaceOnUse">
<stop stop-color="white"/>
<stop offset="1" stop-color="white" stop-opacity="0"/>
</linearGradient>
<linearGradient id="paint1_linear_17_157" x1="36" y1="12" x2="0.500002" y2="12" gradientUnits="userSpaceOnUse">
<stop stop-color="white"/>
<stop offset="1" stop-color="white" stop-opacity="0"/>
</linearGradient>
</defs>
</svg>
